<?xml version="1.0" encoding="utf-8" standalone="no"?>
<!DOCTYPE svg PUBLIC "-//W3C//DTD SVG 1.1//EN"
  "http://www.w3.org/Graphics/SVG/1.1/DTD/svg11.dtd">
<svg xmlns:xlink="http://www.w3.org/1999/xlink" width="432pt" height="288pt" viewBox="0 0 432 288" xmlns="http://www.w3.org/2000/svg" version="1.1">
 <metadata>
  <rdf:RDF xmlns:dc="http://purl.org/dc/elements/1.1/" xmlns:cc="http://creativecommons.org/ns#" xmlns:rdf="http://www.w3.org/1999/02/22-rdf-syntax-ns#">
   <cc:Work>
    <dc:type rdf:resource="http://purl.org/dc/dcmitype/StillImage"/>
    <dc:date>2023-02-15T19:12:39.228380</dc:date>
    <dc:format>image/svg+xml</dc:format>
    <dc:creator>
     <cc:Agent>
      <dc:title>Matplotlib v3.5.1, https://matplotlib.org/</dc:title>
     </cc:Agent>
    </dc:creator>
   </cc:Work>
  </rdf:RDF>
 </metadata>
 <defs>
  <style type="text/css">*{stroke-linejoin: round; stroke-linecap: butt}</style>
 </defs>
 <g id="figure_1">
  <g id="patch_1">
   <path d="M 0 288 
L 432 288 
L 432 0 
L 0 0 
L 0 288 
z
" style="fill: none"/>
  </g>
  <g id="axes_1">
   <g id="patch_2">
    <path d="M 78.89 213.86 
L 412.56 213.86 
L 412.56 25.44 
L 78.89 25.44 
L 78.89 213.86 
z
" style="fill: none"/>
   </g>
   <g id="matplotlib.axis_1">
    <g id="xtick_1">
     <g id="line2d_1">
      <path d="M 134.525879 213.86 
L 134.525879 25.44 
" clip-path="url(#pf8bc4fe4eb)" style="fill: none; stroke: #ffffff; stroke-width: 1.5; stroke-linecap: round"/>
     </g>
     <g id="text_1">
      <!-- 1.2 -->
      <g style="fill: #262626" transform="translate(123.058379 238.170391)scale(0.165 -0.165)">
       <defs>
        <path id="ArialMT-31" d="M 2384 0 
L 1822 0 
L 1822 3584 
Q 1619 3391 1289 3197 
Q 959 3003 697 2906 
L 697 3450 
Q 1169 3672 1522 3987 
Q 1875 4303 2022 4600 
L 2384 4600 
L 2384 0 
z
" transform="scale(0.015625)"/>
        <path id="ArialMT-2e" d="M 581 0 
L 581 641 
L 1222 641 
L 1222 0 
L 581 0 
z
" transform="scale(0.015625)"/>
        <path id="ArialMT-32" d="M 3222 541 
L 3222 0 
L 194 0 
Q 188 203 259 391 
Q 375 700 629 1000 
Q 884 1300 1366 1694 
Q 2113 2306 2375 2664 
Q 2638 3022 2638 3341 
Q 2638 3675 2398 3904 
Q 2159 4134 1775 4134 
Q 1369 4134 1125 3890 
Q 881 3647 878 3216 
L 300 3275 
Q 359 3922 746 4261 
Q 1134 4600 1788 4600 
Q 2447 4600 2831 4234 
Q 3216 3869 3216 3328 
Q 3216 3053 3103 2787 
Q 2991 2522 2730 2228 
Q 2469 1934 1863 1422 
Q 1356 997 1212 845 
Q 1069 694 975 541 
L 3222 541 
z
" transform="scale(0.015625)"/>
       </defs>
       <use xlink:href="#ArialMT-31"/>
       <use xlink:href="#ArialMT-2e" x="55.615234"/>
       <use xlink:href="#ArialMT-32" x="83.398438"/>
      </g>
     </g>
    </g>
    <g id="xtick_2">
     <g id="line2d_2">
      <path d="M 244.65172 213.86 
L 244.65172 25.44 
" clip-path="url(#pf8bc4fe4eb)" style="fill: none; stroke: #ffffff; stroke-width: 1.5; stroke-linecap: round"/>
     </g>
     <g id="text_2">
      <!-- 1.4 -->
      <g style="fill: #262626" transform="translate(233.18422 238.170391)scale(0.165 -0.165)">
       <defs>
        <path id="ArialMT-34" d="M 2069 0 
L 2069 1097 
L 81 1097 
L 81 1613 
L 2172 4581 
L 2631 4581 
L 2631 1613 
L 3250 1613 
L 3250 1097 
L 2631 1097 
L 2631 0 
L 2069 0 
z
M 2069 1613 
L 2069 3678 
L 634 1613 
L 2069 1613 
z
" transform="scale(0.015625)"/>
       </defs>
       <use xlink:href="#ArialMT-31"/>
       <use xlink:href="#ArialMT-2e" x="55.615234"/>
       <use xlink:href="#ArialMT-34" x="83.398438"/>
      </g>
     </g>
    </g>
    <g id="xtick_3">
     <g id="line2d_3">
      <path d="M 354.777561 213.86 
L 354.777561 25.44 
" clip-path="url(#pf8bc4fe4eb)" style="fill: none; stroke: #ffffff; stroke-width: 1.5; stroke-linecap: round"/>
     </g>
     <g id="text_3">
      <!-- 1.6 -->
      <g style="fill: #262626" transform="translate(343.310061 238.170391)scale(0.165 -0.165)">
       <defs>
        <path id="ArialMT-36" d="M 3184 3459 
L 2625 3416 
Q 2550 3747 2413 3897 
Q 2184 4138 1850 4138 
Q 1581 4138 1378 3988 
Q 1113 3794 959 3422 
Q 806 3050 800 2363 
Q 1003 2672 1297 2822 
Q 1591 2972 1913 2972 
Q 2475 2972 2870 2558 
Q 3266 2144 3266 1488 
Q 3266 1056 3080 686 
Q 2894 316 2569 119 
Q 2244 -78 1831 -78 
Q 1128 -78 684 439 
Q 241 956 241 2144 
Q 241 3472 731 4075 
Q 1159 4600 1884 4600 
Q 2425 4600 2770 4297 
Q 3116 3994 3184 3459 
z
M 888 1484 
Q 888 1194 1011 928 
Q 1134 663 1356 523 
Q 1578 384 1822 384 
Q 2178 384 2434 671 
Q 2691 959 2691 1453 
Q 2691 1928 2437 2201 
Q 2184 2475 1800 2475 
Q 1419 2475 1153 2201 
Q 888 1928 888 1484 
z
" transform="scale(0.015625)"/>
       </defs>
       <use xlink:href="#ArialMT-31"/>
       <use xlink:href="#ArialMT-2e" x="55.615234"/>
       <use xlink:href="#ArialMT-36" x="83.398438"/>
      </g>
     </g>
    </g>
    <g id="text_4">
     <!-- $CV_{\bar{y}}/CV_{\bar{x}} $ -->
     <g style="fill: #262626" transform="translate(209.815 258.949766)scale(0.18 -0.18)">
      <defs>
       <path id="DejaVuSans-Oblique-43" d="M 4447 4306 
L 4319 3641 
Q 4019 3944 3683 4091 
Q 3347 4238 2956 4238 
Q 2422 4238 2017 3981 
Q 1613 3725 1319 3200 
Q 1131 2863 1032 2486 
Q 934 2109 934 1728 
Q 934 1091 1264 756 
Q 1594 422 2222 422 
Q 2656 422 3056 561 
Q 3456 700 3834 978 
L 3688 231 
Q 3316 72 2936 -9 
Q 2556 -91 2175 -91 
Q 1278 -91 773 396 
Q 269 884 269 1753 
Q 269 2309 461 2846 
Q 653 3384 1013 3828 
Q 1394 4300 1883 4525 
Q 2372 4750 3022 4750 
Q 3422 4750 3780 4639 
Q 4138 4528 4447 4306 
z
" transform="scale(0.015625)"/>
       <path id="DejaVuSans-Oblique-56" d="M 1319 0 
L 500 4666 
L 1119 4666 
L 1797 653 
L 4063 4666 
L 4750 4666 
L 2053 0 
L 1319 0 
z
" transform="scale(0.015625)"/>
       <path id="DejaVuSans-304" d="M -2522 4769 
L -653 4769 
L -653 4306 
L -2522 4306 
L -2522 4769 
z
" transform="scale(0.015625)"/>
       <path id="DejaVuSans-Oblique-79" d="M 1588 -325 
Q 1188 -997 936 -1164 
Q 684 -1331 294 -1331 
L -159 -1331 
L -63 -850 
L 269 -850 
Q 509 -850 678 -719 
Q 847 -588 1056 -206 
L 1234 128 
L 459 3500 
L 1069 3500 
L 1650 819 
L 3256 3500 
L 3859 3500 
L 1588 -325 
z
" transform="scale(0.015625)"/>
       <path id="DejaVuSans-2f" d="M 1625 4666 
L 2156 4666 
L 531 -594 
L 0 -594 
L 1625 4666 
z
" transform="scale(0.015625)"/>
       <path id="DejaVuSans-Oblique-78" d="M 3841 3500 
L 2234 1784 
L 3219 0 
L 2559 0 
L 1819 1388 
L 531 0 
L -166 0 
L 1556 1844 
L 641 3500 
L 1300 3500 
L 1972 2234 
L 3144 3500 
L 3841 3500 
z
" transform="scale(0.015625)"/>
      </defs>
      <use xlink:href="#DejaVuSans-Oblique-43" transform="translate(0 0.78125)"/>
      <use xlink:href="#DejaVuSans-Oblique-56" transform="translate(69.824219 0.78125)"/>
      <use xlink:href="#DejaVuSans-304" transform="translate(181.166992 -15.6875)scale(0.7)"/>
      <use xlink:href="#DejaVuSans-Oblique-79" transform="translate(138.232422 -15.625)scale(0.7)"/>
      <use xlink:href="#DejaVuSans-2f" transform="translate(182.392578 0.78125)"/>
      <use xlink:href="#DejaVuSans-Oblique-43" transform="translate(216.083984 0.78125)"/>
      <use xlink:href="#DejaVuSans-Oblique-56" transform="translate(285.908203 0.78125)"/>
      <use xlink:href="#DejaVuSans-304" transform="translate(397.250977 -15.6875)scale(0.7)"/>
      <use xlink:href="#DejaVuSans-Oblique-78" transform="translate(354.316406 -15.625)scale(0.7)"/>
     </g>
    </g>
   </g>
   <g id="matplotlib.axis_2">
    <g id="ytick_1">
     <g id="line2d_4">
      <path d="M 78.89 213.86 
L 412.56 213.86 
" clip-path="url(#pf8bc4fe4eb)" style="fill: none; stroke: #ffffff; stroke-width: 1.5; stroke-linecap: round"/>
     </g>
     <g id="text_5">
      <!-- 0.4 -->
      <g style="fill: #262626" transform="translate(43.455 219.765195)scale(0.165 -0.165)">
       <defs>
        <path id="ArialMT-30" d="M 266 2259 
Q 266 3072 433 3567 
Q 600 4063 929 4331 
Q 1259 4600 1759 4600 
Q 2128 4600 2406 4451 
Q 2684 4303 2865 4023 
Q 3047 3744 3150 3342 
Q 3253 2941 3253 2259 
Q 3253 1453 3087 958 
Q 2922 463 2592 192 
Q 2263 -78 1759 -78 
Q 1097 -78 719 397 
Q 266 969 266 2259 
z
M 844 2259 
Q 844 1131 1108 757 
Q 1372 384 1759 384 
Q 2147 384 2411 759 
Q 2675 1134 2675 2259 
Q 2675 3391 2411 3762 
Q 2147 4134 1753 4134 
Q 1366 4134 1134 3806 
Q 844 3388 844 2259 
z
" transform="scale(0.015625)"/>
       </defs>
       <use xlink:href="#ArialMT-30"/>
       <use xlink:href="#ArialMT-2e" x="55.615234"/>
       <use xlink:href="#ArialMT-34" x="83.398438"/>
      </g>
     </g>
    </g>
    <g id="ytick_2">
     <g id="line2d_5">
      <path d="M 78.89 151.053333 
L 412.56 151.053333 
" clip-path="url(#pf8bc4fe4eb)" style="fill: none; stroke: #ffffff; stroke-width: 1.5; stroke-linecap: round"/>
     </g>
     <g id="text_6">
      <!-- 0.6 -->
      <g style="fill: #262626" transform="translate(43.455 156.958529)scale(0.165 -0.165)">
       <use xlink:href="#ArialMT-30"/>
       <use xlink:href="#ArialMT-2e" x="55.615234"/>
       <use xlink:href="#ArialMT-36" x="83.398438"/>
      </g>
     </g>
    </g>
    <g id="ytick_3">
     <g id="line2d_6">
      <path d="M 78.89 88.246667 
L 412.56 88.246667 
" clip-path="url(#pf8bc4fe4eb)" style="fill: none; stroke: #ffffff; stroke-width: 1.5; stroke-linecap: round"/>
     </g>
     <g id="text_7">
      <!-- 0.8 -->
      <g style="fill: #262626" transform="translate(43.455 94.151862)scale(0.165 -0.165)">
       <defs>
        <path id="ArialMT-38" d="M 1131 2484 
Q 781 2613 612 2850 
Q 444 3088 444 3419 
Q 444 3919 803 4259 
Q 1163 4600 1759 4600 
Q 2359 4600 2725 4251 
Q 3091 3903 3091 3403 
Q 3091 3084 2923 2848 
Q 2756 2613 2416 2484 
Q 2838 2347 3058 2040 
Q 3278 1734 3278 1309 
Q 3278 722 2862 322 
Q 2447 -78 1769 -78 
Q 1091 -78 675 323 
Q 259 725 259 1325 
Q 259 1772 486 2073 
Q 713 2375 1131 2484 
z
M 1019 3438 
Q 1019 3113 1228 2906 
Q 1438 2700 1772 2700 
Q 2097 2700 2305 2904 
Q 2513 3109 2513 3406 
Q 2513 3716 2298 3927 
Q 2084 4138 1766 4138 
Q 1444 4138 1231 3931 
Q 1019 3725 1019 3438 
z
M 838 1322 
Q 838 1081 952 856 
Q 1066 631 1291 507 
Q 1516 384 1775 384 
Q 2178 384 2440 643 
Q 2703 903 2703 1303 
Q 2703 1709 2433 1975 
Q 2163 2241 1756 2241 
Q 1359 2241 1098 1978 
Q 838 1716 838 1322 
z
" transform="scale(0.015625)"/>
       </defs>
       <use xlink:href="#ArialMT-30"/>
       <use xlink:href="#ArialMT-2e" x="55.615234"/>
       <use xlink:href="#ArialMT-38" x="83.398438"/>
      </g>
     </g>
    </g>
    <g id="ytick_4">
     <g id="line2d_7">
      <path d="M 78.89 25.44 
L 412.56 25.44 
" clip-path="url(#pf8bc4fe4eb)" style="fill: none; stroke: #ffffff; stroke-width: 1.5; stroke-linecap: round"/>
     </g>
     <g id="text_8">
      <!-- 1.0 -->
      <g style="fill: #262626" transform="translate(43.455 31.345195)scale(0.165 -0.165)">
       <use xlink:href="#ArialMT-31"/>
       <use xlink:href="#ArialMT-2e" x="55.615234"/>
       <use xlink:href="#ArialMT-30" x="83.398438"/>
      </g>
     </g>
    </g>
    <g id="text_9">
     <!-- $\rho_{\bar{x} \bar{y}}$ -->
     <g style="fill: #262626" transform="translate(33.875 133.15)rotate(-90)scale(0.18 -0.18)">
      <defs>
       <path id="DejaVuSans-Oblique-3c1" d="M 1203 2875 
Q 1453 3194 1981 3475 
Q 2188 3584 2756 3584 
Q 3394 3584 3694 3078 
Q 3994 2572 3834 1747 
Q 3672 922 3175 415 
Q 2678 -91 2041 -91 
Q 1656 -91 1409 63 
Q 1163 213 1044 525 
L 681 -1331 
L 103 -1331 
L 697 1716 
Q 838 2438 1203 2875 
z
M 3238 1747 
Q 3359 2381 3169 2744 
Q 2978 3103 2522 3103 
Q 2066 3103 1734 2744 
Q 1403 2381 1281 1747 
Q 1156 1113 1347 750 
Q 1538 391 1994 391 
Q 2450 391 2781 750 
Q 3113 1113 3238 1747 
z
" transform="scale(0.015625)"/>
      </defs>
      <use xlink:href="#DejaVuSans-Oblique-3c1"/>
      <use xlink:href="#DejaVuSans-304" transform="translate(106.411133 -16.46875)scale(0.7)"/>
      <use xlink:href="#DejaVuSans-Oblique-78" transform="translate(63.476562 -16.40625)scale(0.7)"/>
      <use xlink:href="#DejaVuSans-304" transform="translate(147.836914 -16.46875)scale(0.7)"/>
      <use xlink:href="#DejaVuSans-Oblique-79" transform="translate(104.902344 -16.40625)scale(0.7)"/>
     </g>
    </g>
   </g>
   <g id="PathCollection_1">
    <defs>
     <path id="C0_0_00416e8b81" d="M -1.936492 1.936492 
L 1.936492 1.936492 
L 1.936492 -1.936492 
L -1.936492 -1.936492 
z
"/>
    </defs>
    <g clip-path="url(#pf8bc4fe4eb)">
     <use xlink:href="#C0_0_00416e8b81" x="259.573731" y="114.650356" style="fill: #dc267f; stroke: #1a1a1a; stroke-width: 0.309839"/>
    </g>
    <g clip-path="url(#pf8bc4fe4eb)">
     <use xlink:href="#C0_0_00416e8b81" x="263.451856" y="114.255282" style="fill: #dc267f; stroke: #1a1a1a; stroke-width: 0.309839"/>
    </g>
    <g clip-path="url(#pf8bc4fe4eb)">
     <use xlink:href="#C0_0_00416e8b81" x="167.367696" y="130.06864" style="fill: #dc267f; stroke: #1a1a1a; stroke-width: 0.309839"/>
    </g>
    <g clip-path="url(#pf8bc4fe4eb)">
     <use xlink:href="#C0_0_00416e8b81" x="257.091087" y="104.27297" style="fill: #dc267f; stroke: #1a1a1a; stroke-width: 0.309839"/>
    </g>
    <g clip-path="url(#pf8bc4fe4eb)">
     <use xlink:href="#C0_0_00416e8b81" x="254.634492" y="104.103708" style="fill: #dc267f; stroke: #1a1a1a; stroke-width: 0.309839"/>
    </g>
    <g clip-path="url(#pf8bc4fe4eb)">
     <use xlink:href="#C0_0_00416e8b81" x="162.977483" y="129.729623" style="fill: #dc267f; stroke: #1a1a1a; stroke-width: 0.309839"/>
    </g>
    <g clip-path="url(#pf8bc4fe4eb)">
     <use xlink:href="#C0_0_00416e8b81" x="309.773806" y="121.201786" style="fill: #dc267f; stroke: #1a1a1a; stroke-width: 0.309839"/>
    </g>
    <g clip-path="url(#pf8bc4fe4eb)">
     <use xlink:href="#C0_0_00416e8b81" x="313.427514" y="120.643014" style="fill: #dc267f; stroke: #1a1a1a; stroke-width: 0.309839"/>
    </g>
    <g clip-path="url(#pf8bc4fe4eb)">
     <use xlink:href="#C0_0_00416e8b81" x="269.837711" y="124.097516" style="fill: #dc267f; stroke: #1a1a1a; stroke-width: 0.309839"/>
    </g>
    <g clip-path="url(#pf8bc4fe4eb)">
     <use xlink:href="#C0_0_00416e8b81" x="266.645556" y="109.204941" style="fill: #dc267f; stroke: #1a1a1a; stroke-width: 0.309839"/>
    </g>
    <g clip-path="url(#pf8bc4fe4eb)">
     <use xlink:href="#C0_0_00416e8b81" x="266.240484" y="109.244377" style="fill: #dc267f; stroke: #1a1a1a; stroke-width: 0.309839"/>
    </g>
    <g clip-path="url(#pf8bc4fe4eb)">
     <use xlink:href="#C0_0_00416e8b81" x="265.27893" y="124.334575" style="fill: #dc267f; stroke: #1a1a1a; stroke-width: 0.309839"/>
    </g>
   </g>
   <g id="LineCollection_1">
    <path d="M 248.18607 114.650356 
L 270.961393 114.650356 
" clip-path="url(#pf8bc4fe4eb)" style="fill: none; stroke: #1a1a1a"/>
    <path d="M 251.934881 114.255282 
L 274.968832 114.255282 
" clip-path="url(#pf8bc4fe4eb)" style="fill: none; stroke: #1a1a1a"/>
    <path d="M 157.104668 130.06864 
L 177.630725 130.06864 
" clip-path="url(#pf8bc4fe4eb)" style="fill: none; stroke: #1a1a1a"/>
    <path d="M 244.419909 104.27297 
L 269.762265 104.27297 
" clip-path="url(#pf8bc4fe4eb)" style="fill: none; stroke: #1a1a1a"/>
    <path d="M 241.98867 104.103708 
L 267.280315 104.103708 
" clip-path="url(#pf8bc4fe4eb)" style="fill: none; stroke: #1a1a1a"/>
    <path d="M 152.678713 129.729623 
L 173.276254 129.729623 
" clip-path="url(#pf8bc4fe4eb)" style="fill: none; stroke: #1a1a1a"/>
    <path d="M 296.919609 121.201786 
L 322.628002 121.201786 
" clip-path="url(#pf8bc4fe4eb)" style="fill: none; stroke: #1a1a1a"/>
    <path d="M 300.498224 120.643014 
L 326.356803 120.643014 
" clip-path="url(#pf8bc4fe4eb)" style="fill: none; stroke: #1a1a1a"/>
    <path d="M 257.965431 124.097516 
L 281.709992 124.097516 
" clip-path="url(#pf8bc4fe4eb)" style="fill: none; stroke: #1a1a1a"/>
    <path d="M 254.300901 109.204941 
L 278.990211 109.204941 
" clip-path="url(#pf8bc4fe4eb)" style="fill: none; stroke: #1a1a1a"/>
    <path d="M 253.969337 109.244377 
L 278.511631 109.244377 
" clip-path="url(#pf8bc4fe4eb)" style="fill: none; stroke: #1a1a1a"/>
    <path d="M 253.490942 124.334575 
L 277.066918 124.334575 
" clip-path="url(#pf8bc4fe4eb)" style="fill: none; stroke: #1a1a1a"/>
   </g>
   <g id="LineCollection_2">
    <path d="M 259.573731 118.435615 
L 259.573731 110.865097 
" clip-path="url(#pf8bc4fe4eb)" style="fill: none; stroke: #1a1a1a"/>
    <path d="M 263.451856 117.967576 
L 263.451856 110.542989 
" clip-path="url(#pf8bc4fe4eb)" style="fill: none; stroke: #1a1a1a"/>
    <path d="M 167.367696 134.000873 
L 167.367696 126.136408 
" clip-path="url(#pf8bc4fe4eb)" style="fill: none; stroke: #1a1a1a"/>
    <path d="M 257.091087 107.105427 
L 257.091087 101.440513 
" clip-path="url(#pf8bc4fe4eb)" style="fill: none; stroke: #1a1a1a"/>
    <path d="M 254.634492 106.956464 
L 254.634492 101.250951 
" clip-path="url(#pf8bc4fe4eb)" style="fill: none; stroke: #1a1a1a"/>
    <path d="M 162.977483 133.547351 
L 162.977483 125.911896 
" clip-path="url(#pf8bc4fe4eb)" style="fill: none; stroke: #1a1a1a"/>
    <path d="M 309.773806 124.885314 
L 309.773806 117.518257 
" clip-path="url(#pf8bc4fe4eb)" style="fill: none; stroke: #1a1a1a"/>
    <path d="M 313.427514 124.316974 
L 313.427514 116.969054 
" clip-path="url(#pf8bc4fe4eb)" style="fill: none; stroke: #1a1a1a"/>
    <path d="M 269.837711 128.053043 
L 269.837711 120.141989 
" clip-path="url(#pf8bc4fe4eb)" style="fill: none; stroke: #1a1a1a"/>
    <path d="M 266.645556 112.542722 
L 266.645556 105.867159 
" clip-path="url(#pf8bc4fe4eb)" style="fill: none; stroke: #1a1a1a"/>
    <path d="M 266.240484 112.640036 
L 266.240484 105.848718 
" clip-path="url(#pf8bc4fe4eb)" style="fill: none; stroke: #1a1a1a"/>
    <path d="M 265.27893 128.342726 
L 265.27893 120.326424 
" clip-path="url(#pf8bc4fe4eb)" style="fill: none; stroke: #1a1a1a"/>
   </g>
   <g id="line2d_8">
    <defs>
     <path id="mb4649c2bc4" d="M 0 1 
L 0 -1 
" style="stroke: #1a1a1a"/>
    </defs>
    <g clip-path="url(#pf8bc4fe4eb)">
     <use xlink:href="#mb4649c2bc4" x="248.18607" y="114.650356" style="fill: #1a1a1a; stroke: #1a1a1a"/>
     <use xlink:href="#mb4649c2bc4" x="251.934881" y="114.255282" style="fill: #1a1a1a; stroke: #1a1a1a"/>
     <use xlink:href="#mb4649c2bc4" x="157.104668" y="130.06864" style="fill: #1a1a1a; stroke: #1a1a1a"/>
     <use xlink:href="#mb4649c2bc4" x="244.419909" y="104.27297" style="fill: #1a1a1a; stroke: #1a1a1a"/>
     <use xlink:href="#mb4649c2bc4" x="241.98867" y="104.103708" style="fill: #1a1a1a; stroke: #1a1a1a"/>
     <use xlink:href="#mb4649c2bc4" x="152.678713" y="129.729623" style="fill: #1a1a1a; stroke: #1a1a1a"/>
     <use xlink:href="#mb4649c2bc4" x="296.919609" y="121.201786" style="fill: #1a1a1a; stroke: #1a1a1a"/>
     <use xlink:href="#mb4649c2bc4" x="300.498224" y="120.643014" style="fill: #1a1a1a; stroke: #1a1a1a"/>
     <use xlink:href="#mb4649c2bc4" x="257.965431" y="124.097516" style="fill: #1a1a1a; stroke: #1a1a1a"/>
     <use xlink:href="#mb4649c2bc4" x="254.300901" y="109.204941" style="fill: #1a1a1a; stroke: #1a1a1a"/>
     <use xlink:href="#mb4649c2bc4" x="253.969337" y="109.244377" style="fill: #1a1a1a; stroke: #1a1a1a"/>
     <use xlink:href="#mb4649c2bc4" x="253.490942" y="124.334575" style="fill: #1a1a1a; stroke: #1a1a1a"/>
    </g>
   </g>
   <g id="line2d_9">
    <g clip-path="url(#pf8bc4fe4eb)">
     <use xlink:href="#mb4649c2bc4" x="270.961393" y="114.650356" style="fill: #1a1a1a; stroke: #1a1a1a"/>
     <use xlink:href="#mb4649c2bc4" x="274.968832" y="114.255282" style="fill: #1a1a1a; stroke: #1a1a1a"/>
     <use xlink:href="#mb4649c2bc4" x="177.630725" y="130.06864" style="fill: #1a1a1a; stroke: #1a1a1a"/>
     <use xlink:href="#mb4649c2bc4" x="269.762265" y="104.27297" style="fill: #1a1a1a; stroke: #1a1a1a"/>
     <use xlink:href="#mb4649c2bc4" x="267.280315" y="104.103708" style="fill: #1a1a1a; stroke: #1a1a1a"/>
     <use xlink:href="#mb4649c2bc4" x="173.276254" y="129.729623" style="fill: #1a1a1a; stroke: #1a1a1a"/>
     <use xlink:href="#mb4649c2bc4" x="322.628002" y="121.201786" style="fill: #1a1a1a; stroke: #1a1a1a"/>
     <use xlink:href="#mb4649c2bc4" x="326.356803" y="120.643014" style="fill: #1a1a1a; stroke: #1a1a1a"/>
     <use xlink:href="#mb4649c2bc4" x="281.709992" y="124.097516" style="fill: #1a1a1a; stroke: #1a1a1a"/>
     <use xlink:href="#mb4649c2bc4" x="278.990211" y="109.204941" style="fill: #1a1a1a; stroke: #1a1a1a"/>
     <use xlink:href="#mb4649c2bc4" x="278.511631" y="109.244377" style="fill: #1a1a1a; stroke: #1a1a1a"/>
     <use xlink:href="#mb4649c2bc4" x="277.066918" y="124.334575" style="fill: #1a1a1a; stroke: #1a1a1a"/>
    </g>
   </g>
   <g id="line2d_10">
    <defs>
     <path id="m0275ae9435" d="M 1 0 
L -1 -0 
" style="stroke: #1a1a1a"/>
    </defs>
    <g clip-path="url(#pf8bc4fe4eb)">
     <use xlink:href="#m0275ae9435" x="259.573731" y="118.435615" style="fill: #1a1a1a; stroke: #1a1a1a"/>
     <use xlink:href="#m0275ae9435" x="263.451856" y="117.967576" style="fill: #1a1a1a; stroke: #1a1a1a"/>
     <use xlink:href="#m0275ae9435" x="167.367696" y="134.000873" style="fill: #1a1a1a; stroke: #1a1a1a"/>
     <use xlink:href="#m0275ae9435" x="257.091087" y="107.105427" style="fill: #1a1a1a; stroke: #1a1a1a"/>
     <use xlink:href="#m0275ae9435" x="254.634492" y="106.956464" style="fill: #1a1a1a; stroke: #1a1a1a"/>
     <use xlink:href="#m0275ae9435" x="162.977483" y="133.547351" style="fill: #1a1a1a; stroke: #1a1a1a"/>
     <use xlink:href="#m0275ae9435" x="309.773806" y="124.885314" style="fill: #1a1a1a; stroke: #1a1a1a"/>
     <use xlink:href="#m0275ae9435" x="313.427514" y="124.316974" style="fill: #1a1a1a; stroke: #1a1a1a"/>
     <use xlink:href="#m0275ae9435" x="269.837711" y="128.053043" style="fill: #1a1a1a; stroke: #1a1a1a"/>
     <use xlink:href="#m0275ae9435" x="266.645556" y="112.542722" style="fill: #1a1a1a; stroke: #1a1a1a"/>
     <use xlink:href="#m0275ae9435" x="266.240484" y="112.640036" style="fill: #1a1a1a; stroke: #1a1a1a"/>
     <use xlink:href="#m0275ae9435" x="265.27893" y="128.342726" style="fill: #1a1a1a; stroke: #1a1a1a"/>
    </g>
   </g>
   <g id="line2d_11">
    <g clip-path="url(#pf8bc4fe4eb)">
     <use xlink:href="#m0275ae9435" x="259.573731" y="110.865097" style="fill: #1a1a1a; stroke: #1a1a1a"/>
     <use xlink:href="#m0275ae9435" x="263.451856" y="110.542989" style="fill: #1a1a1a; stroke: #1a1a1a"/>
     <use xlink:href="#m0275ae9435" x="167.367696" y="126.136408" style="fill: #1a1a1a; stroke: #1a1a1a"/>
     <use xlink:href="#m0275ae9435" x="257.091087" y="101.440513" style="fill: #1a1a1a; stroke: #1a1a1a"/>
     <use xlink:href="#m0275ae9435" x="254.634492" y="101.250951" style="fill: #1a1a1a; stroke: #1a1a1a"/>
     <use xlink:href="#m0275ae9435" x="162.977483" y="125.911896" style="fill: #1a1a1a; stroke: #1a1a1a"/>
     <use xlink:href="#m0275ae9435" x="309.773806" y="117.518257" style="fill: #1a1a1a; stroke: #1a1a1a"/>
     <use xlink:href="#m0275ae9435" x="313.427514" y="116.969054" style="fill: #1a1a1a; stroke: #1a1a1a"/>
     <use xlink:href="#m0275ae9435" x="269.837711" y="120.141989" style="fill: #1a1a1a; stroke: #1a1a1a"/>
     <use xlink:href="#m0275ae9435" x="266.645556" y="105.867159" style="fill: #1a1a1a; stroke: #1a1a1a"/>
     <use xlink:href="#m0275ae9435" x="266.240484" y="105.848718" style="fill: #1a1a1a; stroke: #1a1a1a"/>
     <use xlink:href="#m0275ae9435" x="265.27893" y="120.326424" style="fill: #1a1a1a; stroke: #1a1a1a"/>
    </g>
   </g>
   <g id="line2d_12">
    <path d="M 94.056818 60.705267 
L 100.247356 63.459918 
L 106.437894 66.160662 
L 112.628432 68.809065 
L 118.81897 71.406635 
L 125.009508 73.95482 
L 131.200046 76.455017 
L 137.390584 78.908568 
L 143.581122 81.316767 
L 149.77166 83.680859 
L 155.962199 86.002045 
L 162.152737 88.281482 
L 168.343275 90.520288 
L 174.533813 92.719538 
L 180.724351 94.880273 
L 186.914889 97.003494 
L 193.105427 99.090171 
L 199.295965 101.141238 
L 205.486503 103.157601 
L 211.677041 105.140131 
L 217.867579 107.089674 
L 224.058117 109.007046 
L 230.248655 110.893037 
L 236.439193 112.748411 
L 242.629731 114.573908 
L 248.820269 116.370243 
L 255.010807 118.138109 
L 261.201345 119.878179 
L 267.391883 121.591103 
L 273.582421 123.27751 
L 279.772959 124.938013 
L 285.963497 126.573202 
L 292.154035 128.183654 
L 298.344573 129.769924 
L 304.535111 131.332554 
L 310.725649 132.872067 
L 316.916187 134.388974 
L 323.106725 135.883768 
L 329.297263 137.35693 
L 335.487801 138.808926 
L 341.67834 140.240208 
L 347.868878 141.651217 
L 354.059416 143.042381 
L 360.249954 144.414115 
L 366.440492 145.766823 
L 372.63103 147.100898 
L 378.821568 148.416724 
L 385.012106 149.714671 
L 391.202644 150.995102 
L 397.393182 152.258369 
" clip-path="url(#pf8bc4fe4eb)" style="fill: none; stroke-dasharray: 8.325,3.6; stroke-dashoffset: 0; stroke: #808080; stroke-width: 2.25"/>
   </g>
   <g id="patch_3">
    <path d="M 78.89 213.86 
L 78.89 25.44 
" style="fill: none; stroke: #ffffff; stroke-width: 1.875; stroke-linejoin: miter; stroke-linecap: square"/>
   </g>
   <g id="patch_4">
    <path d="M 412.56 213.86 
L 412.56 25.44 
" style="fill: none; stroke: #ffffff; stroke-width: 1.875; stroke-linejoin: miter; stroke-linecap: square"/>
   </g>
   <g id="patch_5">
    <path d="M 78.89 213.86 
L 412.56 213.86 
" style="fill: none; stroke: #ffffff; stroke-width: 1.875; stroke-linejoin: miter; stroke-linecap: square"/>
   </g>
   <g id="patch_6">
    <path d="M 78.89 25.44 
L 412.56 25.44 
" style="fill: none; stroke: #ffffff; stroke-width: 1.875; stroke-linejoin: miter; stroke-linecap: square"/>
   </g>
  </g>
 </g>
 <defs>
  <clipPath id="pf8bc4fe4eb">
   <rect x="78.89" y="25.44" width="333.67" height="188.42"/>
  </clipPath>
 </defs>
</svg>
