<?xml version="1.0" encoding="utf-8" standalone="no"?>
<!DOCTYPE svg PUBLIC "-//W3C//DTD SVG 1.1//EN"
  "http://www.w3.org/Graphics/SVG/1.1/DTD/svg11.dtd">
<svg xmlns:xlink="http://www.w3.org/1999/xlink" width="432pt" height="288pt" viewBox="0 0 432 288" xmlns="http://www.w3.org/2000/svg" version="1.1">
 <metadata>
  <rdf:RDF xmlns:dc="http://purl.org/dc/elements/1.1/" xmlns:cc="http://creativecommons.org/ns#" xmlns:rdf="http://www.w3.org/1999/02/22-rdf-syntax-ns#">
   <cc:Work>
    <dc:type rdf:resource="http://purl.org/dc/dcmitype/StillImage"/>
    <dc:date>2023-02-15T19:14:21.785496</dc:date>
    <dc:format>image/svg+xml</dc:format>
    <dc:creator>
     <cc:Agent>
      <dc:title>Matplotlib v3.5.1, https://matplotlib.org/</dc:title>
     </cc:Agent>
    </dc:creator>
   </cc:Work>
  </rdf:RDF>
 </metadata>
 <defs>
  <style type="text/css">*{stroke-linejoin: round; stroke-linecap: butt}</style>
 </defs>
 <g id="figure_1">
  <g id="patch_1">
   <path d="M 0 288 
L 432 288 
L 432 0 
L 0 0 
L 0 288 
z
" style="fill: none"/>
  </g>
  <g id="axes_1">
   <g id="patch_2">
    <path d="M 88.315 213.86 
L 412.56 213.86 
L 412.56 25.44 
L 88.315 25.44 
L 88.315 213.86 
z
" style="fill: none"/>
   </g>
   <g id="matplotlib.axis_1">
    <g id="xtick_1">
     <g id="line2d_1">
      <path d="M 142.379362 213.86 
L 142.379362 25.44 
" clip-path="url(#p0d32ab72c8)" style="fill: none; stroke: #ffffff; stroke-width: 1.5; stroke-linecap: round"/>
     </g>
     <g id="text_1">
      <!-- 1.2 -->
      <g style="fill: #262626" transform="translate(130.911862 238.170391)scale(0.165 -0.165)">
       <defs>
        <path id="ArialMT-31" d="M 2384 0 
L 1822 0 
L 1822 3584 
Q 1619 3391 1289 3197 
Q 959 3003 697 2906 
L 697 3450 
Q 1169 3672 1522 3987 
Q 1875 4303 2022 4600 
L 2384 4600 
L 2384 0 
z
" transform="scale(0.015625)"/>
        <path id="ArialMT-2e" d="M 581 0 
L 581 641 
L 1222 641 
L 1222 0 
L 581 0 
z
" transform="scale(0.015625)"/>
        <path id="ArialMT-32" d="M 3222 541 
L 3222 0 
L 194 0 
Q 188 203 259 391 
Q 375 700 629 1000 
Q 884 1300 1366 1694 
Q 2113 2306 2375 2664 
Q 2638 3022 2638 3341 
Q 2638 3675 2398 3904 
Q 2159 4134 1775 4134 
Q 1369 4134 1125 3890 
Q 881 3647 878 3216 
L 300 3275 
Q 359 3922 746 4261 
Q 1134 4600 1788 4600 
Q 2447 4600 2831 4234 
Q 3216 3869 3216 3328 
Q 3216 3053 3103 2787 
Q 2991 2522 2730 2228 
Q 2469 1934 1863 1422 
Q 1356 997 1212 845 
Q 1069 694 975 541 
L 3222 541 
z
" transform="scale(0.015625)"/>
       </defs>
       <use xlink:href="#ArialMT-31"/>
       <use xlink:href="#ArialMT-2e" x="55.615234"/>
       <use xlink:href="#ArialMT-32" x="83.398438"/>
      </g>
     </g>
    </g>
    <g id="xtick_2">
     <g id="line2d_2">
      <path d="M 249.394536 213.86 
L 249.394536 25.44 
" clip-path="url(#p0d32ab72c8)" style="fill: none; stroke: #ffffff; stroke-width: 1.5; stroke-linecap: round"/>
     </g>
     <g id="text_2">
      <!-- 1.4 -->
      <g style="fill: #262626" transform="translate(237.927036 238.170391)scale(0.165 -0.165)">
       <defs>
        <path id="ArialMT-34" d="M 2069 0 
L 2069 1097 
L 81 1097 
L 81 1613 
L 2172 4581 
L 2631 4581 
L 2631 1613 
L 3250 1613 
L 3250 1097 
L 2631 1097 
L 2631 0 
L 2069 0 
z
M 2069 1613 
L 2069 3678 
L 634 1613 
L 2069 1613 
z
" transform="scale(0.015625)"/>
       </defs>
       <use xlink:href="#ArialMT-31"/>
       <use xlink:href="#ArialMT-2e" x="55.615234"/>
       <use xlink:href="#ArialMT-34" x="83.398438"/>
      </g>
     </g>
    </g>
    <g id="xtick_3">
     <g id="line2d_3">
      <path d="M 356.409711 213.86 
L 356.409711 25.44 
" clip-path="url(#p0d32ab72c8)" style="fill: none; stroke: #ffffff; stroke-width: 1.5; stroke-linecap: round"/>
     </g>
     <g id="text_3">
      <!-- 1.6 -->
      <g style="fill: #262626" transform="translate(344.942211 238.170391)scale(0.165 -0.165)">
       <defs>
        <path id="ArialMT-36" d="M 3184 3459 
L 2625 3416 
Q 2550 3747 2413 3897 
Q 2184 4138 1850 4138 
Q 1581 4138 1378 3988 
Q 1113 3794 959 3422 
Q 806 3050 800 2363 
Q 1003 2672 1297 2822 
Q 1591 2972 1913 2972 
Q 2475 2972 2870 2558 
Q 3266 2144 3266 1488 
Q 3266 1056 3080 686 
Q 2894 316 2569 119 
Q 2244 -78 1831 -78 
Q 1128 -78 684 439 
Q 241 956 241 2144 
Q 241 3472 731 4075 
Q 1159 4600 1884 4600 
Q 2425 4600 2770 4297 
Q 3116 3994 3184 3459 
z
M 888 1484 
Q 888 1194 1011 928 
Q 1134 663 1356 523 
Q 1578 384 1822 384 
Q 2178 384 2434 671 
Q 2691 959 2691 1453 
Q 2691 1928 2437 2201 
Q 2184 2475 1800 2475 
Q 1419 2475 1153 2201 
Q 888 1928 888 1484 
z
" transform="scale(0.015625)"/>
       </defs>
       <use xlink:href="#ArialMT-31"/>
       <use xlink:href="#ArialMT-2e" x="55.615234"/>
       <use xlink:href="#ArialMT-36" x="83.398438"/>
      </g>
     </g>
    </g>
    <g id="text_4">
     <!-- $CV_{\bar{y}}/CV_{\bar{x}} $ -->
     <g style="fill: #262626" transform="translate(214.5275 258.949766)scale(0.18 -0.18)">
      <defs>
       <path id="DejaVuSans-Oblique-43" d="M 4447 4306 
L 4319 3641 
Q 4019 3944 3683 4091 
Q 3347 4238 2956 4238 
Q 2422 4238 2017 3981 
Q 1613 3725 1319 3200 
Q 1131 2863 1032 2486 
Q 934 2109 934 1728 
Q 934 1091 1264 756 
Q 1594 422 2222 422 
Q 2656 422 3056 561 
Q 3456 700 3834 978 
L 3688 231 
Q 3316 72 2936 -9 
Q 2556 -91 2175 -91 
Q 1278 -91 773 396 
Q 269 884 269 1753 
Q 269 2309 461 2846 
Q 653 3384 1013 3828 
Q 1394 4300 1883 4525 
Q 2372 4750 3022 4750 
Q 3422 4750 3780 4639 
Q 4138 4528 4447 4306 
z
" transform="scale(0.015625)"/>
       <path id="DejaVuSans-Oblique-56" d="M 1319 0 
L 500 4666 
L 1119 4666 
L 1797 653 
L 4063 4666 
L 4750 4666 
L 2053 0 
L 1319 0 
z
" transform="scale(0.015625)"/>
       <path id="DejaVuSans-304" d="M -2522 4769 
L -653 4769 
L -653 4306 
L -2522 4306 
L -2522 4769 
z
" transform="scale(0.015625)"/>
       <path id="DejaVuSans-Oblique-79" d="M 1588 -325 
Q 1188 -997 936 -1164 
Q 684 -1331 294 -1331 
L -159 -1331 
L -63 -850 
L 269 -850 
Q 509 -850 678 -719 
Q 847 -588 1056 -206 
L 1234 128 
L 459 3500 
L 1069 3500 
L 1650 819 
L 3256 3500 
L 3859 3500 
L 1588 -325 
z
" transform="scale(0.015625)"/>
       <path id="DejaVuSans-2f" d="M 1625 4666 
L 2156 4666 
L 531 -594 
L 0 -594 
L 1625 4666 
z
" transform="scale(0.015625)"/>
       <path id="DejaVuSans-Oblique-78" d="M 3841 3500 
L 2234 1784 
L 3219 0 
L 2559 0 
L 1819 1388 
L 531 0 
L -166 0 
L 1556 1844 
L 641 3500 
L 1300 3500 
L 1972 2234 
L 3144 3500 
L 3841 3500 
z
" transform="scale(0.015625)"/>
      </defs>
      <use xlink:href="#DejaVuSans-Oblique-43" transform="translate(0 0.78125)"/>
      <use xlink:href="#DejaVuSans-Oblique-56" transform="translate(69.824219 0.78125)"/>
      <use xlink:href="#DejaVuSans-304" transform="translate(181.166992 -15.6875)scale(0.7)"/>
      <use xlink:href="#DejaVuSans-Oblique-79" transform="translate(138.232422 -15.625)scale(0.7)"/>
      <use xlink:href="#DejaVuSans-2f" transform="translate(182.392578 0.78125)"/>
      <use xlink:href="#DejaVuSans-Oblique-43" transform="translate(216.083984 0.78125)"/>
      <use xlink:href="#DejaVuSans-Oblique-56" transform="translate(285.908203 0.78125)"/>
      <use xlink:href="#DejaVuSans-304" transform="translate(397.250977 -15.6875)scale(0.7)"/>
      <use xlink:href="#DejaVuSans-Oblique-78" transform="translate(354.316406 -15.625)scale(0.7)"/>
     </g>
    </g>
   </g>
   <g id="matplotlib.axis_2">
    <g id="ytick_1">
     <g id="line2d_4">
      <path d="M 88.315 213.86 
L 412.56 213.86 
" clip-path="url(#p0d32ab72c8)" style="fill: none; stroke: #ffffff; stroke-width: 1.5; stroke-linecap: round"/>
     </g>
     <g id="text_5">
      <!-- 0.4 -->
      <g style="fill: #262626" transform="translate(52.88 219.765195)scale(0.165 -0.165)">
       <defs>
        <path id="ArialMT-30" d="M 266 2259 
Q 266 3072 433 3567 
Q 600 4063 929 4331 
Q 1259 4600 1759 4600 
Q 2128 4600 2406 4451 
Q 2684 4303 2865 4023 
Q 3047 3744 3150 3342 
Q 3253 2941 3253 2259 
Q 3253 1453 3087 958 
Q 2922 463 2592 192 
Q 2263 -78 1759 -78 
Q 1097 -78 719 397 
Q 266 969 266 2259 
z
M 844 2259 
Q 844 1131 1108 757 
Q 1372 384 1759 384 
Q 2147 384 2411 759 
Q 2675 1134 2675 2259 
Q 2675 3391 2411 3762 
Q 2147 4134 1753 4134 
Q 1366 4134 1134 3806 
Q 844 3388 844 2259 
z
" transform="scale(0.015625)"/>
       </defs>
       <use xlink:href="#ArialMT-30"/>
       <use xlink:href="#ArialMT-2e" x="55.615234"/>
       <use xlink:href="#ArialMT-34" x="83.398438"/>
      </g>
     </g>
    </g>
    <g id="ytick_2">
     <g id="line2d_5">
      <path d="M 88.315 151.053333 
L 412.56 151.053333 
" clip-path="url(#p0d32ab72c8)" style="fill: none; stroke: #ffffff; stroke-width: 1.5; stroke-linecap: round"/>
     </g>
     <g id="text_6">
      <!-- 0.6 -->
      <g style="fill: #262626" transform="translate(52.88 156.958529)scale(0.165 -0.165)">
       <use xlink:href="#ArialMT-30"/>
       <use xlink:href="#ArialMT-2e" x="55.615234"/>
       <use xlink:href="#ArialMT-36" x="83.398438"/>
      </g>
     </g>
    </g>
    <g id="ytick_3">
     <g id="line2d_6">
      <path d="M 88.315 88.246667 
L 412.56 88.246667 
" clip-path="url(#p0d32ab72c8)" style="fill: none; stroke: #ffffff; stroke-width: 1.5; stroke-linecap: round"/>
     </g>
     <g id="text_7">
      <!-- 0.8 -->
      <g style="fill: #262626" transform="translate(52.88 94.151862)scale(0.165 -0.165)">
       <defs>
        <path id="ArialMT-38" d="M 1131 2484 
Q 781 2613 612 2850 
Q 444 3088 444 3419 
Q 444 3919 803 4259 
Q 1163 4600 1759 4600 
Q 2359 4600 2725 4251 
Q 3091 3903 3091 3403 
Q 3091 3084 2923 2848 
Q 2756 2613 2416 2484 
Q 2838 2347 3058 2040 
Q 3278 1734 3278 1309 
Q 3278 722 2862 322 
Q 2447 -78 1769 -78 
Q 1091 -78 675 323 
Q 259 725 259 1325 
Q 259 1772 486 2073 
Q 713 2375 1131 2484 
z
M 1019 3438 
Q 1019 3113 1228 2906 
Q 1438 2700 1772 2700 
Q 2097 2700 2305 2904 
Q 2513 3109 2513 3406 
Q 2513 3716 2298 3927 
Q 2084 4138 1766 4138 
Q 1444 4138 1231 3931 
Q 1019 3725 1019 3438 
z
M 838 1322 
Q 838 1081 952 856 
Q 1066 631 1291 507 
Q 1516 384 1775 384 
Q 2178 384 2440 643 
Q 2703 903 2703 1303 
Q 2703 1709 2433 1975 
Q 2163 2241 1756 2241 
Q 1359 2241 1098 1978 
Q 838 1716 838 1322 
z
" transform="scale(0.015625)"/>
       </defs>
       <use xlink:href="#ArialMT-30"/>
       <use xlink:href="#ArialMT-2e" x="55.615234"/>
       <use xlink:href="#ArialMT-38" x="83.398438"/>
      </g>
     </g>
    </g>
    <g id="ytick_4">
     <g id="line2d_7">
      <path d="M 88.315 25.44 
L 412.56 25.44 
" clip-path="url(#p0d32ab72c8)" style="fill: none; stroke: #ffffff; stroke-width: 1.5; stroke-linecap: round"/>
     </g>
     <g id="text_8">
      <!-- 1.0 -->
      <g style="fill: #262626" transform="translate(52.88 31.345195)scale(0.165 -0.165)">
       <use xlink:href="#ArialMT-31"/>
       <use xlink:href="#ArialMT-2e" x="55.615234"/>
       <use xlink:href="#ArialMT-30" x="83.398438"/>
      </g>
     </g>
    </g>
    <g id="text_9">
     <!-- $\rho_{\bar{x} \bar{y}}/\left(1+\frac{\eta_{ab}}{\eta_{\bar{x}\bar{x}}} \right)$ -->
     <g style="fill: #262626" transform="translate(41.32 171.85)rotate(-90)scale(0.18 -0.18)">
      <defs>
       <path id="DejaVuSans-Oblique-3c1" d="M 1203 2875 
Q 1453 3194 1981 3475 
Q 2188 3584 2756 3584 
Q 3394 3584 3694 3078 
Q 3994 2572 3834 1747 
Q 3672 922 3175 415 
Q 2678 -91 2041 -91 
Q 1656 -91 1409 63 
Q 1163 213 1044 525 
L 681 -1331 
L 103 -1331 
L 697 1716 
Q 838 2438 1203 2875 
z
M 3238 1747 
Q 3359 2381 3169 2744 
Q 2978 3103 2522 3103 
Q 2066 3103 1734 2744 
Q 1403 2381 1281 1747 
Q 1156 1113 1347 750 
Q 1538 391 1994 391 
Q 2450 391 2781 750 
Q 3113 1113 3238 1747 
z
" transform="scale(0.015625)"/>
       <path id="STIXSizeTwoSym-Regular-28" d="M 3219 -1555 
L 3219 -1786 
Q 2144 -774 1517 730 
Q 890 2234 890 4115 
Q 890 6003 1533 7593 
Q 2176 9184 3219 10022 
L 3219 9811 
Q 2490 9062 1994 7606 
Q 1498 6150 1498 4115 
Q 1498 563 3219 -1555 
z
" transform="scale(0.015625)"/>
       <path id="DejaVuSans-31" d="M 794 531 
L 1825 531 
L 1825 4091 
L 703 3866 
L 703 4441 
L 1819 4666 
L 2450 4666 
L 2450 531 
L 3481 531 
L 3481 0 
L 794 0 
L 794 531 
z
" transform="scale(0.015625)"/>
       <path id="DejaVuSans-2b" d="M 2944 4013 
L 2944 2272 
L 4684 2272 
L 4684 1741 
L 2944 1741 
L 2944 0 
L 2419 0 
L 2419 1741 
L 678 1741 
L 678 2272 
L 2419 2272 
L 2419 4013 
L 2944 4013 
z
" transform="scale(0.015625)"/>
       <path id="DejaVuSans-Oblique-3b7" d="M 3703 2113 
L 3034 -1331 
L 2459 -1331 
L 3125 2094 
Q 3222 2591 3075 2838 
Q 2931 3084 2544 3084 
Q 2078 3084 1750 2788 
Q 1425 2491 1325 1978 
L 941 0 
L 363 0 
L 1044 3500 
L 1622 3500 
L 1516 2956 
Q 1781 3272 2094 3428 
Q 2403 3584 2769 3584 
Q 3372 3584 3609 3213 
Q 3844 2838 3703 2113 
z
" transform="scale(0.015625)"/>
       <path id="DejaVuSans-Oblique-61" d="M 3438 1997 
L 3047 0 
L 2472 0 
L 2578 531 
Q 2325 219 2001 64 
Q 1678 -91 1281 -91 
Q 834 -91 548 182 
Q 263 456 263 884 
Q 263 1497 752 1853 
Q 1241 2209 2100 2209 
L 2900 2209 
L 2931 2363 
Q 2938 2388 2941 2417 
Q 2944 2447 2944 2509 
Q 2944 2788 2717 2942 
Q 2491 3097 2081 3097 
Q 1800 3097 1504 3025 
Q 1209 2953 897 2809 
L 997 3341 
Q 1322 3463 1633 3523 
Q 1944 3584 2234 3584 
Q 2853 3584 3176 3315 
Q 3500 3047 3500 2534 
Q 3500 2431 3484 2292 
Q 3469 2153 3438 1997 
z
M 2816 1759 
L 2241 1759 
Q 1534 1759 1195 1570 
Q 856 1381 856 984 
Q 856 709 1029 553 
Q 1203 397 1509 397 
Q 1978 397 2328 733 
Q 2678 1069 2791 1631 
L 2816 1759 
z
" transform="scale(0.015625)"/>
       <path id="DejaVuSans-Oblique-62" d="M 3169 2138 
Q 3169 2591 2961 2847 
Q 2753 3103 2388 3103 
Q 2122 3103 1889 2973 
Q 1656 2844 1484 2597 
Q 1303 2338 1198 1995 
Q 1094 1653 1094 1313 
Q 1094 881 1298 636 
Q 1503 391 1863 391 
Q 2134 391 2365 517 
Q 2597 644 2772 891 
Q 2950 1147 3059 1487 
Q 3169 1828 3169 2138 
z
M 1381 2969 
Q 1594 3256 1914 3420 
Q 2234 3584 2584 3584 
Q 3122 3584 3439 3221 
Q 3756 2859 3756 2241 
Q 3756 1734 3570 1259 
Q 3384 784 3041 416 
Q 2816 172 2522 40 
Q 2228 -91 1906 -91 
Q 1566 -91 1316 65 
Q 1066 222 909 531 
L 806 0 
L 231 0 
L 1178 4863 
L 1753 4863 
L 1381 2969 
z
" transform="scale(0.015625)"/>
       <path id="STIXSizeTwoSym-Regular-29" d="M 730 9792 
L 730 10022 
Q 1805 9011 2432 7507 
Q 3059 6003 3059 4115 
Q 3059 2234 2416 643 
Q 1773 -947 730 -1786 
L 730 -1574 
Q 1459 -826 1955 633 
Q 2451 2093 2451 4115 
Q 2451 7674 730 9792 
z
" transform="scale(0.015625)"/>
      </defs>
      <use xlink:href="#DejaVuSans-Oblique-3c1" transform="translate(0 0.445312)"/>
      <use xlink:href="#DejaVuSans-304" transform="translate(106.411133 -16.023438)scale(0.7)"/>
      <use xlink:href="#DejaVuSans-Oblique-78" transform="translate(63.476562 -15.960938)scale(0.7)"/>
      <use xlink:href="#DejaVuSans-304" transform="translate(147.836914 -16.023438)scale(0.7)"/>
      <use xlink:href="#DejaVuSans-Oblique-79" transform="translate(104.902344 -15.960938)scale(0.7)"/>
      <use xlink:href="#DejaVuSans-2f" transform="translate(149.0625 0.445312)"/>
      <use xlink:href="#STIXSizeTwoSym-Regular-28" transform="translate(182.753906 -19.78125)scale(0.752117)"/>
      <use xlink:href="#DejaVuSans-31" transform="translate(227.048538 0.445312)"/>
      <use xlink:href="#DejaVuSans-2b" transform="translate(310.154007 0.445312)"/>
      <use xlink:href="#DejaVuSans-Oblique-3b7" transform="translate(413.425491 58.8)scale(0.7)"/>
      <use xlink:href="#DejaVuSans-Oblique-61" transform="translate(457.790726 47.315625)scale(0.49)"/>
      <use xlink:href="#DejaVuSans-Oblique-62" transform="translate(487.817581 47.315625)scale(0.49)"/>
      <use xlink:href="#DejaVuSans-Oblique-3b7" transform="translate(415.425491 -26.207812)scale(0.7)"/>
      <use xlink:href="#DejaVuSans-304" transform="translate(490.352737 -37.739062)scale(0.49)"/>
      <use xlink:href="#DejaVuSans-Oblique-78" transform="translate(459.790726 -37.692187)scale(0.49)"/>
      <use xlink:href="#DejaVuSans-304" transform="translate(519.350784 -37.739062)scale(0.49)"/>
      <use xlink:href="#DejaVuSans-Oblique-78" transform="translate(488.788773 -37.692187)scale(0.49)"/>
      <use xlink:href="#STIXSizeTwoSym-Regular-29" transform="translate(533.335159 -19.78125)scale(0.752117)"/>
      <path d="M 413.425491 19.242188 
L 413.425491 25.492188 
L 520.835159 25.492188 
L 520.835159 19.242188 
L 413.425491 19.242188 
z
"/>
     </g>
    </g>
   </g>
   <g id="PathCollection_1">
    <defs>
     <path id="C0_0_24c471c088" d="M -1.936492 1.936492 
L 1.936492 1.936492 
L 1.936492 -1.936492 
L -1.936492 -1.936492 
z
"/>
    </defs>
    <g clip-path="url(#p0d32ab72c8)">
     <use xlink:href="#C0_0_24c471c088" x="263.895054" y="123.519564" style="fill: #dc267f; stroke: #1a1a1a; stroke-width: 0.309839"/>
    </g>
    <g clip-path="url(#p0d32ab72c8)">
     <use xlink:href="#C0_0_24c471c088" x="267.663635" y="123.193894" style="fill: #dc267f; stroke: #1a1a1a; stroke-width: 0.309839"/>
    </g>
    <g clip-path="url(#p0d32ab72c8)">
     <use xlink:href="#C0_0_24c471c088" x="174.293514" y="86.386079" style="fill: #dc267f; stroke: #1a1a1a; stroke-width: 0.309839"/>
    </g>
    <g clip-path="url(#p0d32ab72c8)">
     <use xlink:href="#C0_0_24c471c088" x="261.482535" y="119.22739" style="fill: #dc267f; stroke: #1a1a1a; stroke-width: 0.309839"/>
    </g>
    <g clip-path="url(#p0d32ab72c8)">
     <use xlink:href="#C0_0_24c471c088" x="259.09533" y="119.004923" style="fill: #dc267f; stroke: #1a1a1a; stroke-width: 0.309839"/>
    </g>
    <g clip-path="url(#p0d32ab72c8)">
     <use xlink:href="#C0_0_24c471c088" x="170.027309" y="86.627492" style="fill: #dc267f; stroke: #1a1a1a; stroke-width: 0.309839"/>
    </g>
    <g clip-path="url(#p0d32ab72c8)">
     <use xlink:href="#C0_0_24c471c088" x="312.677153" y="131.509154" style="fill: #dc267f; stroke: #1a1a1a; stroke-width: 0.309839"/>
    </g>
    <g clip-path="url(#p0d32ab72c8)">
     <use xlink:href="#C0_0_24c471c088" x="316.227656" y="131.055585" style="fill: #dc267f; stroke: #1a1a1a; stroke-width: 0.309839"/>
    </g>
    <g clip-path="url(#p0d32ab72c8)">
     <use xlink:href="#C0_0_24c471c088" x="273.869112" y="117.389137" style="fill: #dc267f; stroke: #1a1a1a; stroke-width: 0.309839"/>
    </g>
    <g clip-path="url(#p0d32ab72c8)">
     <use xlink:href="#C0_0_24c471c088" x="270.767124" y="122.922189" style="fill: #dc267f; stroke: #1a1a1a; stroke-width: 0.309839"/>
    </g>
    <g clip-path="url(#p0d32ab72c8)">
     <use xlink:href="#C0_0_24c471c088" x="270.373494" y="122.92593" style="fill: #dc267f; stroke: #1a1a1a; stroke-width: 0.309839"/>
    </g>
    <g clip-path="url(#p0d32ab72c8)">
     <use xlink:href="#C0_0_24c471c088" x="269.439101" y="117.683805" style="fill: #dc267f; stroke: #1a1a1a; stroke-width: 0.309839"/>
    </g>
   </g>
   <g id="LineCollection_1">
    <path d="M 252.829053 123.519564 
L 274.961054 123.519564 
" clip-path="url(#p0d32ab72c8)" style="fill: none; stroke: #1a1a1a"/>
    <path d="M 256.471974 123.193894 
L 278.855297 123.193894 
" clip-path="url(#p0d32ab72c8)" style="fill: none; stroke: #1a1a1a"/>
    <path d="M 164.32038 86.386079 
L 184.266648 86.386079 
" clip-path="url(#p0d32ab72c8)" style="fill: none; stroke: #1a1a1a"/>
    <path d="M 249.169273 119.22739 
L 273.795797 119.22739 
" clip-path="url(#p0d32ab72c8)" style="fill: none; stroke: #1a1a1a"/>
    <path d="M 246.806708 119.004923 
L 271.383953 119.004923 
" clip-path="url(#p0d32ab72c8)" style="fill: none; stroke: #1a1a1a"/>
    <path d="M 160.019442 86.627492 
L 180.035175 86.627492 
" clip-path="url(#p0d32ab72c8)" style="fill: none; stroke: #1a1a1a"/>
    <path d="M 300.186042 131.509154 
L 325.168264 131.509154 
" clip-path="url(#p0d32ab72c8)" style="fill: none; stroke: #1a1a1a"/>
    <path d="M 303.663574 131.055585 
L 328.791739 131.055585 
" clip-path="url(#p0d32ab72c8)" style="fill: none; stroke: #1a1a1a"/>
    <path d="M 262.332182 117.389137 
L 285.406043 117.389137 
" clip-path="url(#p0d32ab72c8)" style="fill: none; stroke: #1a1a1a"/>
    <path d="M 258.771162 122.922189 
L 282.763086 122.922189 
" clip-path="url(#p0d32ab72c8)" style="fill: none; stroke: #1a1a1a"/>
    <path d="M 258.448964 122.92593 
L 282.298025 122.92593 
" clip-path="url(#p0d32ab72c8)" style="fill: none; stroke: #1a1a1a"/>
    <path d="M 257.984082 117.683805 
L 280.89412 117.683805 
" clip-path="url(#p0d32ab72c8)" style="fill: none; stroke: #1a1a1a"/>
   </g>
   <g id="LineCollection_2">
    <path d="M 263.895054 127.304823 
L 263.895054 119.734305 
" clip-path="url(#p0d32ab72c8)" style="fill: none; stroke: #1a1a1a"/>
    <path d="M 267.663635 126.906188 
L 267.663635 119.481601 
" clip-path="url(#p0d32ab72c8)" style="fill: none; stroke: #1a1a1a"/>
    <path d="M 174.293514 90.318312 
L 174.293514 82.453846 
" clip-path="url(#p0d32ab72c8)" style="fill: none; stroke: #1a1a1a"/>
    <path d="M 261.482535 122.059847 
L 261.482535 116.394932 
" clip-path="url(#p0d32ab72c8)" style="fill: none; stroke: #1a1a1a"/>
    <path d="M 259.09533 121.857679 
L 259.09533 116.152166 
" clip-path="url(#p0d32ab72c8)" style="fill: none; stroke: #1a1a1a"/>
    <path d="M 170.027309 90.44522 
L 170.027309 82.809764 
" clip-path="url(#p0d32ab72c8)" style="fill: none; stroke: #1a1a1a"/>
    <path d="M 312.677153 135.192683 
L 312.677153 127.825626 
" clip-path="url(#p0d32ab72c8)" style="fill: none; stroke: #1a1a1a"/>
    <path d="M 316.227656 134.729545 
L 316.227656 127.381625 
" clip-path="url(#p0d32ab72c8)" style="fill: none; stroke: #1a1a1a"/>
    <path d="M 273.869112 121.344664 
L 273.869112 113.433609 
" clip-path="url(#p0d32ab72c8)" style="fill: none; stroke: #1a1a1a"/>
    <path d="M 270.767124 126.259971 
L 270.767124 119.584408 
" clip-path="url(#p0d32ab72c8)" style="fill: none; stroke: #1a1a1a"/>
    <path d="M 270.373494 126.321589 
L 270.373494 119.530271 
" clip-path="url(#p0d32ab72c8)" style="fill: none; stroke: #1a1a1a"/>
    <path d="M 269.439101 121.691957 
L 269.439101 113.675654 
" clip-path="url(#p0d32ab72c8)" style="fill: none; stroke: #1a1a1a"/>
   </g>
   <g id="line2d_8">
    <defs>
     <path id="m3f31bcef5b" d="M 0 1 
L 0 -1 
" style="stroke: #1a1a1a"/>
    </defs>
    <g clip-path="url(#p0d32ab72c8)">
     <use xlink:href="#m3f31bcef5b" x="252.829053" y="123.519564" style="fill: #1a1a1a; stroke: #1a1a1a"/>
     <use xlink:href="#m3f31bcef5b" x="256.471974" y="123.193894" style="fill: #1a1a1a; stroke: #1a1a1a"/>
     <use xlink:href="#m3f31bcef5b" x="164.32038" y="86.386079" style="fill: #1a1a1a; stroke: #1a1a1a"/>
     <use xlink:href="#m3f31bcef5b" x="249.169273" y="119.22739" style="fill: #1a1a1a; stroke: #1a1a1a"/>
     <use xlink:href="#m3f31bcef5b" x="246.806708" y="119.004923" style="fill: #1a1a1a; stroke: #1a1a1a"/>
     <use xlink:href="#m3f31bcef5b" x="160.019442" y="86.627492" style="fill: #1a1a1a; stroke: #1a1a1a"/>
     <use xlink:href="#m3f31bcef5b" x="300.186042" y="131.509154" style="fill: #1a1a1a; stroke: #1a1a1a"/>
     <use xlink:href="#m3f31bcef5b" x="303.663574" y="131.055585" style="fill: #1a1a1a; stroke: #1a1a1a"/>
     <use xlink:href="#m3f31bcef5b" x="262.332182" y="117.389137" style="fill: #1a1a1a; stroke: #1a1a1a"/>
     <use xlink:href="#m3f31bcef5b" x="258.771162" y="122.922189" style="fill: #1a1a1a; stroke: #1a1a1a"/>
     <use xlink:href="#m3f31bcef5b" x="258.448964" y="122.92593" style="fill: #1a1a1a; stroke: #1a1a1a"/>
     <use xlink:href="#m3f31bcef5b" x="257.984082" y="117.683805" style="fill: #1a1a1a; stroke: #1a1a1a"/>
    </g>
   </g>
   <g id="line2d_9">
    <g clip-path="url(#p0d32ab72c8)">
     <use xlink:href="#m3f31bcef5b" x="274.961054" y="123.519564" style="fill: #1a1a1a; stroke: #1a1a1a"/>
     <use xlink:href="#m3f31bcef5b" x="278.855297" y="123.193894" style="fill: #1a1a1a; stroke: #1a1a1a"/>
     <use xlink:href="#m3f31bcef5b" x="184.266648" y="86.386079" style="fill: #1a1a1a; stroke: #1a1a1a"/>
     <use xlink:href="#m3f31bcef5b" x="273.795797" y="119.22739" style="fill: #1a1a1a; stroke: #1a1a1a"/>
     <use xlink:href="#m3f31bcef5b" x="271.383953" y="119.004923" style="fill: #1a1a1a; stroke: #1a1a1a"/>
     <use xlink:href="#m3f31bcef5b" x="180.035175" y="86.627492" style="fill: #1a1a1a; stroke: #1a1a1a"/>
     <use xlink:href="#m3f31bcef5b" x="325.168264" y="131.509154" style="fill: #1a1a1a; stroke: #1a1a1a"/>
     <use xlink:href="#m3f31bcef5b" x="328.791739" y="131.055585" style="fill: #1a1a1a; stroke: #1a1a1a"/>
     <use xlink:href="#m3f31bcef5b" x="285.406043" y="117.389137" style="fill: #1a1a1a; stroke: #1a1a1a"/>
     <use xlink:href="#m3f31bcef5b" x="282.763086" y="122.922189" style="fill: #1a1a1a; stroke: #1a1a1a"/>
     <use xlink:href="#m3f31bcef5b" x="282.298025" y="122.92593" style="fill: #1a1a1a; stroke: #1a1a1a"/>
     <use xlink:href="#m3f31bcef5b" x="280.89412" y="117.683805" style="fill: #1a1a1a; stroke: #1a1a1a"/>
    </g>
   </g>
   <g id="line2d_10">
    <defs>
     <path id="me0e689d87e" d="M 1 0 
L -1 -0 
" style="stroke: #1a1a1a"/>
    </defs>
    <g clip-path="url(#p0d32ab72c8)">
     <use xlink:href="#me0e689d87e" x="263.895054" y="127.304823" style="fill: #1a1a1a; stroke: #1a1a1a"/>
     <use xlink:href="#me0e689d87e" x="267.663635" y="126.906188" style="fill: #1a1a1a; stroke: #1a1a1a"/>
     <use xlink:href="#me0e689d87e" x="174.293514" y="90.318312" style="fill: #1a1a1a; stroke: #1a1a1a"/>
     <use xlink:href="#me0e689d87e" x="261.482535" y="122.059847" style="fill: #1a1a1a; stroke: #1a1a1a"/>
     <use xlink:href="#me0e689d87e" x="259.09533" y="121.857679" style="fill: #1a1a1a; stroke: #1a1a1a"/>
     <use xlink:href="#me0e689d87e" x="170.027309" y="90.44522" style="fill: #1a1a1a; stroke: #1a1a1a"/>
     <use xlink:href="#me0e689d87e" x="312.677153" y="135.192683" style="fill: #1a1a1a; stroke: #1a1a1a"/>
     <use xlink:href="#me0e689d87e" x="316.227656" y="134.729545" style="fill: #1a1a1a; stroke: #1a1a1a"/>
     <use xlink:href="#me0e689d87e" x="273.869112" y="121.344664" style="fill: #1a1a1a; stroke: #1a1a1a"/>
     <use xlink:href="#me0e689d87e" x="270.767124" y="126.259971" style="fill: #1a1a1a; stroke: #1a1a1a"/>
     <use xlink:href="#me0e689d87e" x="270.373494" y="126.321589" style="fill: #1a1a1a; stroke: #1a1a1a"/>
     <use xlink:href="#me0e689d87e" x="269.439101" y="121.691957" style="fill: #1a1a1a; stroke: #1a1a1a"/>
    </g>
   </g>
   <g id="line2d_11">
    <g clip-path="url(#p0d32ab72c8)">
     <use xlink:href="#me0e689d87e" x="263.895054" y="119.734305" style="fill: #1a1a1a; stroke: #1a1a1a"/>
     <use xlink:href="#me0e689d87e" x="267.663635" y="119.481601" style="fill: #1a1a1a; stroke: #1a1a1a"/>
     <use xlink:href="#me0e689d87e" x="174.293514" y="82.453846" style="fill: #1a1a1a; stroke: #1a1a1a"/>
     <use xlink:href="#me0e689d87e" x="261.482535" y="116.394932" style="fill: #1a1a1a; stroke: #1a1a1a"/>
     <use xlink:href="#me0e689d87e" x="259.09533" y="116.152166" style="fill: #1a1a1a; stroke: #1a1a1a"/>
     <use xlink:href="#me0e689d87e" x="170.027309" y="82.809764" style="fill: #1a1a1a; stroke: #1a1a1a"/>
     <use xlink:href="#me0e689d87e" x="312.677153" y="127.825626" style="fill: #1a1a1a; stroke: #1a1a1a"/>
     <use xlink:href="#me0e689d87e" x="316.227656" y="127.381625" style="fill: #1a1a1a; stroke: #1a1a1a"/>
     <use xlink:href="#me0e689d87e" x="273.869112" y="113.433609" style="fill: #1a1a1a; stroke: #1a1a1a"/>
     <use xlink:href="#me0e689d87e" x="270.767124" y="119.584408" style="fill: #1a1a1a; stroke: #1a1a1a"/>
     <use xlink:href="#me0e689d87e" x="270.373494" y="119.530271" style="fill: #1a1a1a; stroke: #1a1a1a"/>
     <use xlink:href="#me0e689d87e" x="269.439101" y="113.675654" style="fill: #1a1a1a; stroke: #1a1a1a"/>
    </g>
   </g>
   <g id="line2d_12">
    <path d="M 103.053409 60.705267 
L 109.069086 63.459918 
L 115.084763 66.160662 
L 121.100441 68.809065 
L 127.116118 71.406635 
L 133.131795 73.95482 
L 139.147472 76.455017 
L 145.163149 78.908568 
L 151.178827 81.316767 
L 157.194504 83.680859 
L 163.210181 86.002045 
L 169.225858 88.281482 
L 175.241535 90.520288 
L 181.257212 92.719538 
L 187.27289 94.880273 
L 193.288567 97.003494 
L 199.304244 99.090171 
L 205.319921 101.141238 
L 211.335598 103.157601 
L 217.351276 105.140131 
L 223.366953 107.089674 
L 229.38263 109.007046 
L 235.398307 110.893037 
L 241.413984 112.748411 
L 247.429661 114.573908 
L 253.445339 116.370243 
L 259.461016 118.138109 
L 265.476693 119.878179 
L 271.49237 121.591103 
L 277.508047 123.27751 
L 283.523724 124.938013 
L 289.539402 126.573202 
L 295.555079 128.183654 
L 301.570756 129.769924 
L 307.586433 131.332554 
L 313.60211 132.872067 
L 319.617788 134.388974 
L 325.633465 135.883768 
L 331.649142 137.35693 
L 337.664819 138.808926 
L 343.680496 140.240208 
L 349.696173 141.651217 
L 355.711851 143.042381 
L 361.727528 144.414115 
L 367.743205 145.766823 
L 373.758882 147.100898 
L 379.774559 148.416724 
L 385.790237 149.714671 
L 391.805914 150.995102 
L 397.821591 152.258369 
" clip-path="url(#p0d32ab72c8)" style="fill: none; stroke-dasharray: 8.325,3.6; stroke-dashoffset: 0; stroke: #808080; stroke-width: 2.25"/>
   </g>
   <g id="patch_3">
    <path d="M 88.315 213.86 
L 88.315 25.44 
" style="fill: none; stroke: #ffffff; stroke-width: 1.875; stroke-linejoin: miter; stroke-linecap: square"/>
   </g>
   <g id="patch_4">
    <path d="M 412.56 213.86 
L 412.56 25.44 
" style="fill: none; stroke: #ffffff; stroke-width: 1.875; stroke-linejoin: miter; stroke-linecap: square"/>
   </g>
   <g id="patch_5">
    <path d="M 88.315 213.86 
L 412.56 213.86 
" style="fill: none; stroke: #ffffff; stroke-width: 1.875; stroke-linejoin: miter; stroke-linecap: square"/>
   </g>
   <g id="patch_6">
    <path d="M 88.315 25.44 
L 412.56 25.44 
" style="fill: none; stroke: #ffffff; stroke-width: 1.875; stroke-linejoin: miter; stroke-linecap: square"/>
   </g>
  </g>
 </g>
 <defs>
  <clipPath id="p0d32ab72c8">
   <rect x="88.315" y="25.44" width="324.245" height="188.42"/>
  </clipPath>
 </defs>
</svg>
